<svg xmlns="http://www.w3.org/2000/svg" viewBox="0 0 1200 520"><defs><linearGradient id="bg2" x1="0" x2="1"><stop stop-color="#f2fbff"/><stop offset="1" stop-color="#f8f3ff"/></linearGradient><linearGradient id="code" x1="0" x2="1"><stop stop-color="#247bff"/><stop offset="1" stop-color="#27d3ff"/></linearGradient></defs><rect width="1200" height="520" rx="28" fill="url(#bg2)"/><path d="M70 410h1060" stroke="#cbd8e7"/><g transform="translate(150 90)"><rect width="470" height="280" rx="18" fill="#fff" stroke="#c3d2e3"/><rect x="25" y="25" width="420" height="210" rx="10" fill="#071522"/><path d="M55 75h170M55 110h260M55 145h210M55 180h320" stroke="#31506e" stroke-width="10" stroke-linecap="round"/><path d="M55 75h90M55 110h145M55 145h80" stroke="url(#code)" stroke-width="10" stroke-linecap="round"/><rect x="195" y="250" width="80" height="18" rx="9" fill="#cbd8e7"/></g><g stroke="#8195aa" stroke-width="2"><circle cx="790" cy="225" r="52" fill="#fff"/><path d="M750 330c10-62 110-62 120 0z" fill="#fff"/><circle cx="790" cy="210" r="30" fill="#f0bd9a"/><path d="M762 200q28-40 56 0" fill="#26384d"/></g><path d="M620 230h115" stroke="#247bff" stroke-width="3" stroke-dasharray="8 8"/><rect x="695" y="350" width="300" height="62" rx="12" fill="#fff" stroke="#c3d2e3"/><rect x="715" y="370" width="90" height="18" rx="9" fill="#247bff" opacity=".8"/><rect x="820" y="370" width="65" height="18" rx="9" fill="#27d3ff" opacity=".7"/><rect x="900" y="370" width="70" height="18" rx="9" fill="#7c5cff" opacity=".65"/><circle cx="1010" cy="170" r="75" fill="#27d3ff" opacity=".08"/><path d="M980 170l25-25 25 25-25 25z" fill="none" stroke="#27d3ff" stroke-width="4"/><path d="M1040 130v80M1000 170h80" stroke="#247bff" opacity=".5"/><text x="160" y="440" font-family="Arial" font-size="13" font-weight="700" fill="#247bff" letter-spacing="3">ENGINEER</text></svg>